<mxfile host="Electron" modified="2024-02-14T18:25:51.131Z" agent="Mozilla/5.0 (Windows NT 10.0; Win64; x64) AppleWebKit/537.36 (KHTML, like Gecko) draw.io/22.0.3 Chrome/114.0.5735.289 Electron/25.8.4 Safari/537.36" etag="kM0DI0xGpU812zuobFZv" version="22.0.3" type="device">
  <diagram name="Strona-1" id="ctOCngOkz1bf9ul4fXHk">
    <mxGraphModel dx="2311" dy="1860" grid="1" gridSize="10" guides="1" tooltips="1" connect="1" arrows="1" fold="1" page="1" pageScale="1" pageWidth="827" pageHeight="1169" math="0" shadow="0">
      <root>
        <mxCell id="0" />
        <mxCell id="UOewq9LmF-Dxaq6nfREC-9" value="Back/Front-end bg" style="" parent="0" />
        <mxCell id="xOw8l5iXE5gjYcBum9ts-1" value="" style="rounded=0;whiteSpace=wrap;html=1;movable=1;resizable=1;rotatable=1;deletable=1;editable=1;locked=0;connectable=1;" parent="UOewq9LmF-Dxaq6nfREC-9" vertex="1">
          <mxGeometry x="30" y="680" width="450" height="500" as="geometry" />
        </mxCell>
        <mxCell id="xOw8l5iXE5gjYcBum9ts-2" value="Frontend" style="text;html=1;strokeColor=none;fillColor=none;align=center;verticalAlign=middle;whiteSpace=wrap;rounded=0;" parent="UOewq9LmF-Dxaq6nfREC-9" vertex="1">
          <mxGeometry x="30" y="680" width="70" height="30" as="geometry" />
        </mxCell>
        <mxCell id="xOw8l5iXE5gjYcBum9ts-3" value="" style="rounded=0;whiteSpace=wrap;html=1;movable=1;resizable=1;rotatable=1;deletable=1;editable=1;locked=0;connectable=1;" parent="UOewq9LmF-Dxaq6nfREC-9" vertex="1">
          <mxGeometry x="520" y="680" width="480" height="500" as="geometry" />
        </mxCell>
        <mxCell id="xOw8l5iXE5gjYcBum9ts-4" value="Backend" style="text;html=1;strokeColor=none;fillColor=none;align=center;verticalAlign=middle;whiteSpace=wrap;rounded=0;" parent="UOewq9LmF-Dxaq6nfREC-9" vertex="1">
          <mxGeometry x="520" y="680" width="70" height="30" as="geometry" />
        </mxCell>
        <mxCell id="xOw8l5iXE5gjYcBum9ts-42" style="edgeStyle=orthogonalEdgeStyle;rounded=0;orthogonalLoop=1;jettySize=auto;html=1;entryX=0;entryY=0.5;entryDx=0;entryDy=0;" parent="UOewq9LmF-Dxaq6nfREC-9" source="xOw8l5iXE5gjYcBum9ts-5" target="xOw8l5iXE5gjYcBum9ts-41" edge="1">
          <mxGeometry relative="1" as="geometry" />
        </mxCell>
        <mxCell id="xOw8l5iXE5gjYcBum9ts-43" value="convert to csv" style="edgeLabel;html=1;align=center;verticalAlign=middle;resizable=0;points=[];" parent="xOw8l5iXE5gjYcBum9ts-42" vertex="1" connectable="0">
          <mxGeometry x="-0.5761" relative="1" as="geometry">
            <mxPoint x="4" y="-9" as="offset" />
          </mxGeometry>
        </mxCell>
        <mxCell id="xOw8l5iXE5gjYcBum9ts-5" value="User Form" style="swimlane;fontStyle=0;childLayout=stackLayout;horizontal=1;startSize=30;horizontalStack=0;resizeParent=1;resizeParentMax=0;resizeLast=0;collapsible=1;marginBottom=0;whiteSpace=wrap;html=1;" parent="UOewq9LmF-Dxaq6nfREC-9" vertex="1">
          <mxGeometry x="50" y="710" width="140" height="150" as="geometry" />
        </mxCell>
        <mxCell id="xOw8l5iXE5gjYcBum9ts-6" value="types" style="text;strokeColor=none;fillColor=none;align=left;verticalAlign=middle;spacingLeft=4;spacingRight=4;overflow=hidden;points=[[0,0.5],[1,0.5]];portConstraint=eastwest;rotatable=0;whiteSpace=wrap;html=1;" parent="xOw8l5iXE5gjYcBum9ts-5" vertex="1">
          <mxGeometry y="30" width="140" height="30" as="geometry" />
        </mxCell>
        <mxCell id="xOw8l5iXE5gjYcBum9ts-7" value="weights" style="text;strokeColor=none;fillColor=none;align=left;verticalAlign=middle;spacingLeft=4;spacingRight=4;overflow=hidden;points=[[0,0.5],[1,0.5]];portConstraint=eastwest;rotatable=0;whiteSpace=wrap;html=1;" parent="xOw8l5iXE5gjYcBum9ts-5" vertex="1">
          <mxGeometry y="60" width="140" height="30" as="geometry" />
        </mxCell>
        <mxCell id="xOw8l5iXE5gjYcBum9ts-27" value="&lt;i&gt;additional_parameters*&lt;/i&gt;" style="text;strokeColor=none;fillColor=none;align=left;verticalAlign=middle;spacingLeft=4;spacingRight=4;overflow=hidden;points=[[0,0.5],[1,0.5]];portConstraint=eastwest;rotatable=0;whiteSpace=wrap;html=1;" parent="xOw8l5iXE5gjYcBum9ts-5" vertex="1">
          <mxGeometry y="90" width="140" height="30" as="geometry" />
        </mxCell>
        <mxCell id="xOw8l5iXE5gjYcBum9ts-8" value="data" style="text;strokeColor=none;fillColor=none;align=left;verticalAlign=middle;spacingLeft=4;spacingRight=4;overflow=hidden;points=[[0,0.5],[1,0.5]];portConstraint=eastwest;rotatable=0;whiteSpace=wrap;html=1;" parent="xOw8l5iXE5gjYcBum9ts-5" vertex="1">
          <mxGeometry y="120" width="140" height="30" as="geometry" />
        </mxCell>
        <mxCell id="xOw8l5iXE5gjYcBum9ts-13" value="API" style="whiteSpace=wrap;html=1;" parent="UOewq9LmF-Dxaq6nfREC-9" vertex="1">
          <mxGeometry x="540" y="710" width="50" height="450" as="geometry" />
        </mxCell>
        <mxCell id="xOw8l5iXE5gjYcBum9ts-16" value="Request" style="rounded=0;whiteSpace=wrap;html=1;" parent="UOewq9LmF-Dxaq6nfREC-9" vertex="1">
          <mxGeometry x="380" y="830" width="68" height="60" as="geometry" />
        </mxCell>
        <mxCell id="xOw8l5iXE5gjYcBum9ts-30" style="edgeStyle=orthogonalEdgeStyle;rounded=0;orthogonalLoop=1;jettySize=auto;html=1;entryX=0.5;entryY=0;entryDx=0;entryDy=0;" parent="UOewq9LmF-Dxaq6nfREC-9" source="xOw8l5iXE5gjYcBum9ts-28" target="xOw8l5iXE5gjYcBum9ts-16" edge="1">
          <mxGeometry relative="1" as="geometry" />
        </mxCell>
        <mxCell id="xOw8l5iXE5gjYcBum9ts-28" value="method name" style="whiteSpace=wrap;html=1;" parent="UOewq9LmF-Dxaq6nfREC-9" vertex="1">
          <mxGeometry x="369.5" y="710" width="89" height="40" as="geometry" />
        </mxCell>
        <mxCell id="xOw8l5iXE5gjYcBum9ts-46" style="edgeStyle=orthogonalEdgeStyle;rounded=0;orthogonalLoop=1;jettySize=auto;html=1;entryX=0;entryY=0.5;entryDx=0;entryDy=0;" parent="UOewq9LmF-Dxaq6nfREC-9" source="xOw8l5iXE5gjYcBum9ts-31" target="xOw8l5iXE5gjYcBum9ts-41" edge="1">
          <mxGeometry relative="1" as="geometry" />
        </mxCell>
        <mxCell id="xOw8l5iXE5gjYcBum9ts-31" value="CSV File Upload" style="swimlane;fontStyle=0;childLayout=stackLayout;horizontal=1;startSize=30;horizontalStack=0;resizeParent=1;resizeParentMax=0;resizeLast=0;collapsible=1;marginBottom=0;whiteSpace=wrap;html=1;" parent="UOewq9LmF-Dxaq6nfREC-9" vertex="1">
          <mxGeometry x="50" y="890" width="140" height="150" as="geometry" />
        </mxCell>
        <mxCell id="xOw8l5iXE5gjYcBum9ts-32" value="types" style="text;strokeColor=none;fillColor=none;align=left;verticalAlign=middle;spacingLeft=4;spacingRight=4;overflow=hidden;points=[[0,0.5],[1,0.5]];portConstraint=eastwest;rotatable=0;whiteSpace=wrap;html=1;" parent="xOw8l5iXE5gjYcBum9ts-31" vertex="1">
          <mxGeometry y="30" width="140" height="30" as="geometry" />
        </mxCell>
        <mxCell id="xOw8l5iXE5gjYcBum9ts-33" value="weights" style="text;strokeColor=none;fillColor=none;align=left;verticalAlign=middle;spacingLeft=4;spacingRight=4;overflow=hidden;points=[[0,0.5],[1,0.5]];portConstraint=eastwest;rotatable=0;whiteSpace=wrap;html=1;" parent="xOw8l5iXE5gjYcBum9ts-31" vertex="1">
          <mxGeometry y="60" width="140" height="30" as="geometry" />
        </mxCell>
        <mxCell id="xOw8l5iXE5gjYcBum9ts-34" value="&lt;i&gt;additional_parameters*&lt;/i&gt;" style="text;strokeColor=none;fillColor=none;align=left;verticalAlign=middle;spacingLeft=4;spacingRight=4;overflow=hidden;points=[[0,0.5],[1,0.5]];portConstraint=eastwest;rotatable=0;whiteSpace=wrap;html=1;" parent="xOw8l5iXE5gjYcBum9ts-31" vertex="1">
          <mxGeometry y="90" width="140" height="30" as="geometry" />
        </mxCell>
        <mxCell id="xOw8l5iXE5gjYcBum9ts-35" value="data" style="text;strokeColor=none;fillColor=none;align=left;verticalAlign=middle;spacingLeft=4;spacingRight=4;overflow=hidden;points=[[0,0.5],[1,0.5]];portConstraint=eastwest;rotatable=0;whiteSpace=wrap;html=1;" parent="xOw8l5iXE5gjYcBum9ts-31" vertex="1">
          <mxGeometry y="120" width="140" height="30" as="geometry" />
        </mxCell>
        <mxCell id="xOw8l5iXE5gjYcBum9ts-36" value="Response Manager" style="swimlane;fontStyle=0;childLayout=stackLayout;horizontal=1;startSize=30;horizontalStack=0;resizeParent=1;resizeParentMax=0;resizeLast=0;collapsible=1;marginBottom=0;whiteSpace=wrap;html=1;" parent="UOewq9LmF-Dxaq6nfREC-9" vertex="1">
          <mxGeometry x="50" y="1070" width="140" height="90" as="geometry" />
        </mxCell>
        <mxCell id="xOw8l5iXE5gjYcBum9ts-37" value="Correct reponse" style="text;strokeColor=none;fillColor=none;align=left;verticalAlign=middle;spacingLeft=4;spacingRight=4;overflow=hidden;points=[[0,0.5],[1,0.5]];portConstraint=eastwest;rotatable=0;whiteSpace=wrap;html=1;" parent="xOw8l5iXE5gjYcBum9ts-36" vertex="1">
          <mxGeometry y="30" width="140" height="30" as="geometry" />
        </mxCell>
        <mxCell id="xOw8l5iXE5gjYcBum9ts-38" value="Error reponse" style="text;strokeColor=none;fillColor=none;align=left;verticalAlign=middle;spacingLeft=4;spacingRight=4;overflow=hidden;points=[[0,0.5],[1,0.5]];portConstraint=eastwest;rotatable=0;whiteSpace=wrap;html=1;" parent="xOw8l5iXE5gjYcBum9ts-36" vertex="1">
          <mxGeometry y="60" width="140" height="30" as="geometry" />
        </mxCell>
        <mxCell id="xOw8l5iXE5gjYcBum9ts-44" value="" style="edgeStyle=orthogonalEdgeStyle;rounded=0;orthogonalLoop=1;jettySize=auto;html=1;" parent="UOewq9LmF-Dxaq6nfREC-9" source="xOw8l5iXE5gjYcBum9ts-41" target="xOw8l5iXE5gjYcBum9ts-16" edge="1">
          <mxGeometry relative="1" as="geometry" />
        </mxCell>
        <mxCell id="xOw8l5iXE5gjYcBum9ts-41" value="CSV Data" style="whiteSpace=wrap;html=1;aspect=fixed;" parent="UOewq9LmF-Dxaq6nfREC-9" vertex="1">
          <mxGeometry x="280" y="830" width="60" height="60" as="geometry" />
        </mxCell>
        <mxCell id="xOw8l5iXE5gjYcBum9ts-49" value="" style="endArrow=classic;html=1;rounded=0;entryX=1;entryY=0.5;entryDx=0;entryDy=0;" parent="UOewq9LmF-Dxaq6nfREC-9" target="xOw8l5iXE5gjYcBum9ts-37" edge="1">
          <mxGeometry width="50" height="50" relative="1" as="geometry">
            <mxPoint x="540" y="1115" as="sourcePoint" />
            <mxPoint x="179.99999999999977" y="1115" as="targetPoint" />
          </mxGeometry>
        </mxCell>
        <mxCell id="xOw8l5iXE5gjYcBum9ts-50" value="response" style="edgeLabel;html=1;align=center;verticalAlign=middle;resizable=0;points=[];" parent="xOw8l5iXE5gjYcBum9ts-49" vertex="1" connectable="0">
          <mxGeometry x="0.2016" y="-1" relative="1" as="geometry">
            <mxPoint x="40" y="1" as="offset" />
          </mxGeometry>
        </mxCell>
        <mxCell id="xOw8l5iXE5gjYcBum9ts-67" style="edgeStyle=orthogonalEdgeStyle;rounded=0;orthogonalLoop=1;jettySize=auto;html=1;exitX=0.75;exitY=1;exitDx=0;exitDy=0;entryX=0.75;entryY=0;entryDx=0;entryDy=0;" parent="UOewq9LmF-Dxaq6nfREC-9" source="xOw8l5iXE5gjYcBum9ts-55" target="xOw8l5iXE5gjYcBum9ts-66" edge="1">
          <mxGeometry relative="1" as="geometry" />
        </mxCell>
        <mxCell id="xOw8l5iXE5gjYcBum9ts-68" value="request.data" style="edgeLabel;html=1;align=center;verticalAlign=middle;resizable=0;points=[];" parent="xOw8l5iXE5gjYcBum9ts-67" vertex="1" connectable="0">
          <mxGeometry x="-0.3286" y="1" relative="1" as="geometry">
            <mxPoint y="13" as="offset" />
          </mxGeometry>
        </mxCell>
        <mxCell id="xOw8l5iXE5gjYcBum9ts-55" value="Django View" style="rounded=0;whiteSpace=wrap;html=1;" parent="UOewq9LmF-Dxaq6nfREC-9" vertex="1">
          <mxGeometry x="670" y="710" width="310" height="50" as="geometry" />
        </mxCell>
        <mxCell id="xOw8l5iXE5gjYcBum9ts-57" value="" style="endArrow=classic;html=1;rounded=0;" parent="UOewq9LmF-Dxaq6nfREC-9" edge="1">
          <mxGeometry width="50" height="50" relative="1" as="geometry">
            <mxPoint x="590" y="720" as="sourcePoint" />
            <mxPoint x="670" y="720" as="targetPoint" />
          </mxGeometry>
        </mxCell>
        <mxCell id="xOw8l5iXE5gjYcBum9ts-58" value="request" style="edgeLabel;html=1;align=center;verticalAlign=middle;resizable=0;points=[];" parent="xOw8l5iXE5gjYcBum9ts-57" vertex="1" connectable="0">
          <mxGeometry x="-0.1071" relative="1" as="geometry">
            <mxPoint as="offset" />
          </mxGeometry>
        </mxCell>
        <mxCell id="xOw8l5iXE5gjYcBum9ts-59" value="" style="endArrow=none;html=1;rounded=0;entryX=0;entryY=0.25;entryDx=0;entryDy=0;startArrow=classic;startFill=1;endFill=0;" parent="UOewq9LmF-Dxaq6nfREC-9" edge="1">
          <mxGeometry width="50" height="50" relative="1" as="geometry">
            <mxPoint x="590" y="750" as="sourcePoint" />
            <mxPoint x="670" y="750" as="targetPoint" />
          </mxGeometry>
        </mxCell>
        <mxCell id="xOw8l5iXE5gjYcBum9ts-60" value="response" style="edgeLabel;html=1;align=center;verticalAlign=middle;resizable=0;points=[];" parent="xOw8l5iXE5gjYcBum9ts-59" vertex="1" connectable="0">
          <mxGeometry x="-0.1071" relative="1" as="geometry">
            <mxPoint as="offset" />
          </mxGeometry>
        </mxCell>
        <mxCell id="xOw8l5iXE5gjYcBum9ts-64" value="" style="endArrow=classic;html=1;rounded=0;" parent="UOewq9LmF-Dxaq6nfREC-9" edge="1">
          <mxGeometry width="50" height="50" relative="1" as="geometry">
            <mxPoint x="450" y="859.47" as="sourcePoint" />
            <mxPoint x="540" y="859.47" as="targetPoint" />
          </mxGeometry>
        </mxCell>
        <mxCell id="xOw8l5iXE5gjYcBum9ts-65" value="request" style="edgeLabel;html=1;align=center;verticalAlign=middle;resizable=0;points=[];" parent="xOw8l5iXE5gjYcBum9ts-64" vertex="1" connectable="0">
          <mxGeometry x="-0.0582" relative="1" as="geometry">
            <mxPoint x="-7" y="-10" as="offset" />
          </mxGeometry>
        </mxCell>
        <mxCell id="xOw8l5iXE5gjYcBum9ts-85" style="edgeStyle=orthogonalEdgeStyle;rounded=0;orthogonalLoop=1;jettySize=auto;html=1;exitX=0.75;exitY=1;exitDx=0;exitDy=0;entryX=0.75;entryY=0;entryDx=0;entryDy=0;" parent="UOewq9LmF-Dxaq6nfREC-9" source="xOw8l5iXE5gjYcBum9ts-66" target="xOw8l5iXE5gjYcBum9ts-84" edge="1">
          <mxGeometry relative="1" as="geometry" />
        </mxCell>
        <mxCell id="xOw8l5iXE5gjYcBum9ts-86" value="data" style="edgeLabel;html=1;align=center;verticalAlign=middle;resizable=0;points=[];" parent="xOw8l5iXE5gjYcBum9ts-85" vertex="1" connectable="0">
          <mxGeometry x="-0.1796" relative="1" as="geometry">
            <mxPoint y="7" as="offset" />
          </mxGeometry>
        </mxCell>
        <mxCell id="xOw8l5iXE5gjYcBum9ts-66" value="CSV Data Processor" style="rounded=0;whiteSpace=wrap;html=1;" parent="UOewq9LmF-Dxaq6nfREC-9" vertex="1">
          <mxGeometry x="670" y="840" width="310" height="50" as="geometry" />
        </mxCell>
        <mxCell id="xOw8l5iXE5gjYcBum9ts-76" value="" style="endArrow=classic;html=1;rounded=0;" parent="UOewq9LmF-Dxaq6nfREC-9" edge="1">
          <mxGeometry width="50" height="50" relative="1" as="geometry">
            <mxPoint x="710" y="810" as="sourcePoint" />
            <mxPoint x="710" y="760" as="targetPoint" />
          </mxGeometry>
        </mxCell>
        <mxCell id="xOw8l5iXE5gjYcBum9ts-80" value="method output&lt;br&gt;(preferences, ranking)" style="edgeLabel;html=1;align=center;verticalAlign=middle;resizable=0;points=[];" parent="xOw8l5iXE5gjYcBum9ts-76" vertex="1" connectable="0">
          <mxGeometry x="0.1972" relative="1" as="geometry">
            <mxPoint x="1" y="9" as="offset" />
          </mxGeometry>
        </mxCell>
        <mxCell id="xOw8l5iXE5gjYcBum9ts-77" value="" style="endArrow=classic;html=1;rounded=0;" parent="UOewq9LmF-Dxaq6nfREC-9" edge="1">
          <mxGeometry width="50" height="50" relative="1" as="geometry">
            <mxPoint x="840" y="810" as="sourcePoint" />
            <mxPoint x="839.83" y="760" as="targetPoint" />
          </mxGeometry>
        </mxCell>
        <mxCell id="xOw8l5iXE5gjYcBum9ts-81" value="error message" style="edgeLabel;html=1;align=center;verticalAlign=middle;resizable=0;points=[];" parent="xOw8l5iXE5gjYcBum9ts-77" vertex="1" connectable="0">
          <mxGeometry x="0.0399" y="-1" relative="1" as="geometry">
            <mxPoint as="offset" />
          </mxGeometry>
        </mxCell>
        <mxCell id="xOw8l5iXE5gjYcBum9ts-78" value="" style="endArrow=none;html=1;rounded=0;" parent="UOewq9LmF-Dxaq6nfREC-9" edge="1">
          <mxGeometry width="50" height="50" relative="1" as="geometry">
            <mxPoint x="710" y="810" as="sourcePoint" />
            <mxPoint x="840" y="810" as="targetPoint" />
          </mxGeometry>
        </mxCell>
        <mxCell id="xOw8l5iXE5gjYcBum9ts-79" value="" style="endArrow=none;html=1;rounded=0;" parent="UOewq9LmF-Dxaq6nfREC-9" edge="1">
          <mxGeometry width="50" height="50" relative="1" as="geometry">
            <mxPoint x="770" y="840" as="sourcePoint" />
            <mxPoint x="770" y="810" as="targetPoint" />
          </mxGeometry>
        </mxCell>
        <mxCell id="xOw8l5iXE5gjYcBum9ts-84" value="Method Factory" style="rounded=0;whiteSpace=wrap;html=1;" parent="UOewq9LmF-Dxaq6nfREC-9" vertex="1">
          <mxGeometry x="670" y="970" width="310" height="40" as="geometry" />
        </mxCell>
        <mxCell id="xOw8l5iXE5gjYcBum9ts-87" value="" style="endArrow=classic;html=1;rounded=0;" parent="UOewq9LmF-Dxaq6nfREC-9" edge="1">
          <mxGeometry width="50" height="50" relative="1" as="geometry">
            <mxPoint x="710" y="940" as="sourcePoint" />
            <mxPoint x="710" y="890" as="targetPoint" />
          </mxGeometry>
        </mxCell>
        <mxCell id="xOw8l5iXE5gjYcBum9ts-88" value="method output&lt;br&gt;(preferences, ranking)" style="edgeLabel;html=1;align=center;verticalAlign=middle;resizable=0;points=[];" parent="xOw8l5iXE5gjYcBum9ts-87" vertex="1" connectable="0">
          <mxGeometry x="0.1972" relative="1" as="geometry">
            <mxPoint x="1" y="9" as="offset" />
          </mxGeometry>
        </mxCell>
        <mxCell id="xOw8l5iXE5gjYcBum9ts-89" value="" style="endArrow=classic;html=1;rounded=0;" parent="UOewq9LmF-Dxaq6nfREC-9" edge="1">
          <mxGeometry width="50" height="50" relative="1" as="geometry">
            <mxPoint x="840" y="940" as="sourcePoint" />
            <mxPoint x="839.83" y="890" as="targetPoint" />
          </mxGeometry>
        </mxCell>
        <mxCell id="xOw8l5iXE5gjYcBum9ts-90" value="error message" style="edgeLabel;html=1;align=center;verticalAlign=middle;resizable=0;points=[];" parent="xOw8l5iXE5gjYcBum9ts-89" vertex="1" connectable="0">
          <mxGeometry x="0.0399" y="-1" relative="1" as="geometry">
            <mxPoint as="offset" />
          </mxGeometry>
        </mxCell>
        <mxCell id="xOw8l5iXE5gjYcBum9ts-91" value="" style="endArrow=none;html=1;rounded=0;" parent="UOewq9LmF-Dxaq6nfREC-9" edge="1">
          <mxGeometry width="50" height="50" relative="1" as="geometry">
            <mxPoint x="710" y="940" as="sourcePoint" />
            <mxPoint x="840" y="940" as="targetPoint" />
          </mxGeometry>
        </mxCell>
        <mxCell id="xOw8l5iXE5gjYcBum9ts-92" value="" style="endArrow=none;html=1;rounded=0;" parent="UOewq9LmF-Dxaq6nfREC-9" edge="1">
          <mxGeometry width="50" height="50" relative="1" as="geometry">
            <mxPoint x="770" y="970" as="sourcePoint" />
            <mxPoint x="770" y="940" as="targetPoint" />
          </mxGeometry>
        </mxCell>
        <mxCell id="xOw8l5iXE5gjYcBum9ts-104" style="edgeStyle=orthogonalEdgeStyle;rounded=0;orthogonalLoop=1;jettySize=auto;html=1;entryX=0.5;entryY=1;entryDx=0;entryDy=0;startArrow=classic;startFill=1;" parent="UOewq9LmF-Dxaq6nfREC-9" source="xOw8l5iXE5gjYcBum9ts-99" target="xOw8l5iXE5gjYcBum9ts-84" edge="1">
          <mxGeometry relative="1" as="geometry" />
        </mxCell>
        <mxCell id="xOw8l5iXE5gjYcBum9ts-99" value="Available Methods" style="swimlane;fontStyle=0;childLayout=stackLayout;horizontal=1;startSize=26;fillColor=none;horizontalStack=0;resizeParent=1;resizeParentMax=0;resizeLast=0;collapsible=1;marginBottom=0;whiteSpace=wrap;html=1;" parent="UOewq9LmF-Dxaq6nfREC-9" vertex="1">
          <mxGeometry x="670" y="1056" width="310" height="104" as="geometry">
            <mxRectangle x="630" y="90" width="90" height="30" as="alternateBounds" />
          </mxGeometry>
        </mxCell>
        <mxCell id="xOw8l5iXE5gjYcBum9ts-100" value="TOPSIS" style="text;strokeColor=none;fillColor=none;align=left;verticalAlign=top;spacingLeft=4;spacingRight=4;overflow=hidden;rotatable=0;points=[[0,0.5],[1,0.5]];portConstraint=eastwest;whiteSpace=wrap;html=1;" parent="xOw8l5iXE5gjYcBum9ts-99" vertex="1">
          <mxGeometry y="26" width="310" height="26" as="geometry" />
        </mxCell>
        <mxCell id="xOw8l5iXE5gjYcBum9ts-101" value="COPRAS" style="text;strokeColor=none;fillColor=none;align=left;verticalAlign=top;spacingLeft=4;spacingRight=4;overflow=hidden;rotatable=0;points=[[0,0.5],[1,0.5]];portConstraint=eastwest;whiteSpace=wrap;html=1;" parent="xOw8l5iXE5gjYcBum9ts-99" vertex="1">
          <mxGeometry y="52" width="310" height="26" as="geometry" />
        </mxCell>
        <mxCell id="xOw8l5iXE5gjYcBum9ts-102" value="SPOTIS" style="text;strokeColor=none;fillColor=none;align=left;verticalAlign=top;spacingLeft=4;spacingRight=4;overflow=hidden;rotatable=0;points=[[0,0.5],[1,0.5]];portConstraint=eastwest;whiteSpace=wrap;html=1;" parent="xOw8l5iXE5gjYcBum9ts-99" vertex="1">
          <mxGeometry y="78" width="310" height="26" as="geometry" />
        </mxCell>
        <mxCell id="1" style="" parent="0" visible="0" />
        <mxCell id="UOewq9LmF-Dxaq6nfREC-2" value="" style="whiteSpace=wrap;html=1;fillColor=none;" parent="1" vertex="1">
          <mxGeometry x="-160" y="190" width="1050" height="420" as="geometry" />
        </mxCell>
        <mxCell id="UOewq9LmF-Dxaq6nfREC-5" value="DJANGO" style="text;html=1;strokeColor=none;fillColor=none;align=center;verticalAlign=middle;whiteSpace=wrap;rounded=0;" parent="1" vertex="1">
          <mxGeometry x="-160" y="160" width="70" height="30" as="geometry" />
        </mxCell>
        <object label="Content" id="UOewq9LmF-Dxaq6nfREC-13">
          <mxCell style="" parent="0" />
        </object>
      </root>
    </mxGraphModel>
  </diagram>
</mxfile>
